<svg id="Livello_1" data-name="Livello 1" xmlns="http://www.w3.org/2000/svg" xmlns:xlink="http://www.w3.org/1999/xlink" viewBox="0 0 486 486"><defs><style>.cls-1{fill:url(#Sfumatura_senza_nome_4);}.cls-2{fill:url(#Sfumatura_senza_nome_4-2);}.cls-3{fill:url(#Sfumatura_senza_nome_4-3);}.cls-4{fill:url(#Sfumatura_senza_nome_4-4);}.cls-5{fill:url(#Sfumatura_senza_nome_4-5);}</style><linearGradient id="Sfumatura_senza_nome_4" x1="167" y1="248.5" x2="321" y2="248.5" gradientUnits="userSpaceOnUse"><stop offset="0" stop-color="#fff"/><stop offset="0" stop-color="#7b488f"/><stop offset="1" stop-color="#5267a8"/></linearGradient><linearGradient id="Sfumatura_senza_nome_4-2" x1="167" y1="304.5" x2="321" y2="304.5" xlink:href="#Sfumatura_senza_nome_4"/><linearGradient id="Sfumatura_senza_nome_4-3" x1="167" y1="377.5" x2="321" y2="377.5" xlink:href="#Sfumatura_senza_nome_4"/><linearGradient id="Sfumatura_senza_nome_4-4" x1="180" y1="144.5" x2="323" y2="144.5" xlink:href="#Sfumatura_senza_nome_4"/><linearGradient id="Sfumatura_senza_nome_4-5" x1="7" y1="250" x2="493" y2="250" xlink:href="#Sfumatura_senza_nome_4"/></defs><title>logo-hio</title><rect class="cls-1" x="167" y="234" width="154" height="29"/><rect class="cls-2" x="167" y="290" width="154" height="29"/><polygon class="cls-3" points="256.5 391 256.5 335 231.5 335 231.5 391 167 391 167 420 229.5 420 258.5 420 321 420 321 391 256.5 391"/><path class="cls-4" d="M251.5,86A58.5,58.5,0,1,1,193,144.5,58.56,58.56,0,0,1,251.5,86m0-13A71.5,71.5,0,1,0,323,144.5,71.5,71.5,0,0,0,251.5,73Z" transform="translate(-7 -7)"/><path class="cls-5" d="M250,27a223.07,223.07,0,0,1,86.8,428.48,223.06,223.06,0,0,1-173.6-411A221.5,221.5,0,0,1,250,27m0-20C115.79,7,7,115.79,7,250S115.79,493,250,493,493,384.21,493,250,384.21,7,250,7Z" transform="translate(-7 -7)"/></svg>